<svg width="60" height="60" viewBox="0 0 60 60" fill="none" xmlns="http://www.w3.org/2000/svg">
<g clip-path="url(#clip0_14_94)">
<path d="M54.2695 3.75H5.51954C2.51837 3.75 0 6.26836 0 9.375V50.625C0 53.7316 2.51836 56.25 5.51953 56.25H54.2695C57.3762 56.25 59.8945 53.7316 59.8945 50.625V9.375C59.8945 6.26836 57.4805 3.75 54.2695 3.75ZM13.0195 47.8125C13.0195 48.3302 12.5998 48.75 12.082 48.75H6.45704C5.93931 48.75 5.51954 48.3302 5.51954 47.8125V42.1875C5.51954 41.6698 5.93931 41.25 6.45704 41.25H11.9766C12.4943 41.25 12.9141 41.6698 12.9141 42.1875L13.0195 47.8125ZM13.0195 32.8125C13.0195 33.3302 12.5998 33.75 12.082 33.75H6.45704C5.93931 33.75 5.51954 33.3302 5.51954 32.8125V27.1875C5.51954 26.6698 5.93931 26.25 6.45704 26.25H11.9766C12.4943 26.25 12.9141 26.6698 12.9141 27.1875V32.8125H13.0195ZM13.0195 17.8125C13.0195 18.3302 12.5998 18.75 12.082 18.75H6.45704C5.93931 18.75 5.51954 18.3302 5.51954 17.8125V12.1875C5.51954 11.6698 5.93931 11.25 6.45704 11.25H11.9766C12.4943 11.25 12.9141 11.6698 12.9141 12.1875L13.0195 17.8125ZM41.1445 46.875C41.1445 47.9105 40.305 48.75 39.2695 48.75H20.5195C19.4841 48.75 18.6445 47.9105 18.6445 46.875V35.625C18.6445 34.5893 19.4841 33.75 20.5195 33.75H39.2695C40.305 33.75 41.1445 34.5893 41.1445 35.625V46.875ZM41.1445 24.375C41.1445 25.4105 40.305 26.25 39.2695 26.25H20.5195C19.4841 26.25 18.6445 25.4105 18.6445 24.375V13.125C18.6445 12.0893 19.4841 11.25 20.5195 11.25H39.2695C40.305 11.25 41.1445 12.0893 41.1445 13.125V24.375ZM54.2695 47.8125C54.2695 48.3302 53.8498 48.75 53.332 48.75H47.8125C47.2948 48.75 46.9805 48.3302 46.9805 47.8125V42.1875C46.9805 41.6698 47.4002 41.25 47.918 41.25H53.4375C53.9552 41.25 54.375 41.6698 54.375 42.1875V47.8125H54.2695ZM54.2695 32.8125C54.2695 33.3302 53.8498 33.75 53.332 33.75H47.8125C47.2948 33.75 46.875 33.3302 46.875 32.8125V27.1875C46.875 26.6698 47.2948 26.25 47.8125 26.25H53.332C53.8498 26.25 54.2695 26.6698 54.2695 27.1875V32.8125ZM54.2695 17.8125C54.2695 18.3302 53.8498 18.75 53.332 18.75H47.8125C47.2948 18.75 46.875 18.3302 46.875 17.8125V12.1875C46.875 11.6698 47.2948 11.25 47.707 11.25H53.2266C53.7443 11.25 54.1641 11.6698 54.1641 12.1875V17.8125H54.2695Z" fill="#177D34"/>
</g>
<defs>
<clipPath id="clip0_14_94">
<rect width="60" height="60" fill="white"/>
</clipPath>
</defs>
</svg>
